<svg xmlns="http://www.w3.org/2000/svg" xmlns:xlink="http://www.w3.org/1999/xlink" width="1638" zoomAndPan="magnify" viewBox="29.5 28 1198.5 170" height="301" preserveAspectRatio="xMidYMid meet" version="1.0"><defs><g/><clipPath id="f11e3c07a6"><rect x="0" width="1146" y="0" height="168"/></clipPath><clipPath id="045c8f8277"><path d="M 1189.332031 28.175781 L 1227.539062 28.175781 L 1227.539062 66.386719 L 1189.332031 66.386719 Z M 1189.332031 28.175781 " clip-rule="nonzero"/></clipPath></defs><g transform="matrix(1, 0, 0, 1, 29, 29)"><g clip-path="url(#f11e3c07a6)"><g fill="#ffffff" fill-opacity="1"><g transform="translate(0.744313, 133.529846)"><g><path d="M 90.589844 -21.132812 C 91.25 -22.074219 91.859375 -22.542969 92.421875 -22.542969 C 93.925781 -22.542969 94.675781 -21.835938 94.675781 -20.429688 C 94.675781 -18.925781 93.691406 -16.90625 91.71875 -14.371094 C 87.867188 -9.015625 82.890625 -4.929688 76.785156 -2.113281 C 70.679688 0.703125 63.824219 2.113281 56.214844 2.113281 C 41.5625 2.113281 29.492188 -2.769531 20.007812 -12.539062 C 10.519531 -22.308594 5.777344 -34.660156 5.777344 -49.59375 C 5.777344 -64.246094 10.519531 -76.878906 20.007812 -87.492188 C 29.492188 -98.105469 40.859375 -103.410156 54.101562 -103.410156 C 59.738281 -103.410156 66.171875 -102.097656 73.402344 -99.46875 L 76.644531 -98.761719 C 78.050781 -98.761719 78.992188 -99.609375 79.460938 -101.296875 C 80.023438 -102.800781 80.871094 -103.550781 81.996094 -103.550781 C 82.75 -103.550781 83.359375 -103.316406 83.828125 -102.847656 L 84.53125 -100.875 L 92 -81.292969 L 92.421875 -79.179688 C 92.421875 -77.863281 91.8125 -77.207031 90.589844 -77.207031 C 89.558594 -77.207031 88.5 -78.121094 87.421875 -79.953125 C 86.339844 -81.785156 85.332031 -83.335938 84.390625 -84.601562 C 83.453125 -85.871094 82.371094 -87.117188 81.152344 -88.335938 C 74.671875 -95.003906 66.59375 -98.339844 56.917969 -98.339844 C 46.398438 -98.339844 37.664062 -93.972656 30.714844 -85.238281 C 23.761719 -76.503906 20.289062 -65.464844 20.289062 -52.128906 C 20.289062 -38.226562 24.070312 -26.746094 31.628906 -17.679688 C 39.191406 -8.617188 48.746094 -4.085938 60.300781 -4.085938 C 66.40625 -4.085938 71.921875 -5.355469 76.855469 -7.890625 C 81.785156 -10.425781 85.847656 -14.089844 89.042969 -18.878906 Z M 90.589844 -21.132812 "/></g></g></g><g fill="#ffffff" fill-opacity="1"><g transform="translate(98.374398, 133.529846)"><g><path d="M 4.367188 -31.277344 L 4.226562 -33.109375 C 4.226562 -42.5 7.207031 -50.179688 13.171875 -56.144531 C 19.136719 -62.109375 26.816406 -65.089844 36.207031 -65.089844 C 46.257812 -65.089844 54.851562 -61.566406 61.992188 -54.523438 C 69.128906 -47.480469 72.699219 -38.886719 72.699219 -28.742188 C 72.699219 -19.535156 69.738281 -12.117188 63.824219 -6.480469 C 57.90625 -0.84375 50.015625 1.972656 40.152344 1.972656 C 30.007812 1.972656 21.507812 -1.128906 14.652344 -7.328125 C 7.796875 -13.523438 4.367188 -21.507812 4.367188 -31.277344 Z M 33.109375 -60.300781 C 24.1875 -60.300781 18.691406 -55.792969 16.625 -46.773438 C 16.25 -45.273438 16.0625 -43.535156 16.0625 -41.5625 C 16.0625 -30.574219 18.597656 -21.320312 23.667969 -13.808594 C 28.742188 -6.292969 35.035156 -2.535156 42.546875 -2.535156 C 47.902344 -2.535156 52.175781 -4.367188 55.367188 -8.03125 C 58.5625 -11.695312 60.160156 -16.71875 60.160156 -23.105469 C 60.160156 -33.15625 57.480469 -41.867188 52.128906 -49.242188 C 46.773438 -56.613281 40.433594 -60.300781 33.109375 -60.300781 Z M 33.109375 -60.300781 "/></g></g></g><g fill="#ffffff" fill-opacity="1"><g transform="translate(176.140355, 133.529846)"><g><path d="M 22.964844 -62.132812 L 22.964844 -55.933594 C 22.964844 -55.464844 23.058594 -55.085938 23.246094 -54.804688 C 23.433594 -54.523438 23.574219 -54.335938 23.667969 -54.242188 C 24.328125 -54.804688 24.75 -55.273438 24.9375 -55.652344 C 29.820312 -61.660156 35.785156 -64.667969 42.828125 -64.667969 C 50.625 -64.667969 57.386719 -61.308594 63.117188 -54.59375 C 68.847656 -47.878906 71.710938 -39.917969 71.710938 -30.714844 C 71.710938 -21.507812 69.011719 -13.738281 63.609375 -7.398438 C 58.210938 -1.058594 51.613281 2.113281 43.816406 2.113281 C 36.394531 2.113281 30.480469 -0.609375 26.0625 -6.058594 L 24.9375 -7.46875 L 23.667969 -8.59375 C 23.480469 -8.3125 23.339844 -8.03125 23.246094 -7.75 C 23.152344 -7.46875 23.105469 -7.136719 23.105469 -6.761719 L 23.105469 10.144531 C 23.105469 13.054688 23.386719 14.839844 23.949219 15.496094 C 24.984375 16.8125 26.792969 17.65625 29.375 18.035156 C 31.957031 18.410156 33.25 19.207031 33.25 20.429688 C 33.25 21.742188 32.214844 22.402344 30.148438 22.402344 L 4.367188 22.402344 C 2.394531 22.402344 1.410156 21.742188 1.410156 20.429688 C 1.410156 19.207031 2.605469 18.410156 5 18.035156 C 7.398438 17.65625 9.109375 16.8125 10.144531 15.496094 C 10.707031 14.746094 10.988281 12.960938 10.988281 10.144531 L 10.988281 -43.113281 C 10.988281 -45.648438 10.707031 -47.480469 10.144531 -48.605469 C 9.582031 -49.734375 8.59375 -50.4375 7.183594 -50.71875 L 5.917969 -51 C 4.695312 -51.378906 4.085938 -52.035156 4.085938 -52.972656 C 4.085938 -53.632812 4.554688 -54.242188 5.496094 -54.804688 L 20.289062 -64.105469 L 21.132812 -64.386719 C 22.261719 -64.386719 22.871094 -63.632812 22.964844 -62.132812 Z M 40.714844 -59.3125 C 35.925781 -59.3125 31.816406 -57.269531 28.390625 -53.183594 C 24.960938 -49.097656 23.246094 -44.050781 23.246094 -38.039062 L 22.964844 -26.488281 L 22.964844 -25.5 C 22.964844 -19.113281 24.515625 -13.996094 27.613281 -10.144531 C 30.714844 -6.292969 34.800781 -4.367188 39.871094 -4.367188 C 45.507812 -4.367188 50.15625 -6.996094 53.820312 -12.257812 C 57.480469 -17.515625 59.3125 -24.234375 59.3125 -32.402344 C 59.3125 -40.199219 57.578125 -46.632812 54.101562 -51.707031 C 50.625 -56.777344 46.164062 -59.3125 40.714844 -59.3125 Z M 40.714844 -59.3125 "/></g></g></g><g fill="#ffffff" fill-opacity="1"><g transform="translate(253.624549, 133.529846)"><g><path d="M 20.570312 -26.207031 C 19.441406 -25.921875 18.878906 -25.5 18.878906 -24.9375 C 18.878906 -23.808594 19.347656 -22.308594 20.289062 -20.429688 C 22.542969 -15.355469 25.757812 -11.316406 29.9375 -8.3125 C 34.117188 -5.308594 38.648438 -3.804688 43.535156 -3.804688 C 50.484375 -3.804688 56.636719 -6.761719 61.992188 -12.679688 C 62.554688 -13.523438 63.257812 -13.949219 64.105469 -13.949219 C 65.324219 -13.949219 65.9375 -13.289062 65.9375 -11.976562 L 65.230469 -10.003906 C 62.507812 -6.246094 58.773438 -3.289062 54.03125 -1.128906 C 49.289062 1.03125 44.191406 2.113281 38.746094 2.113281 C 28.976562 2.113281 20.898438 -1.128906 14.511719 -7.609375 C 8.125 -14.089844 4.929688 -22.355469 4.929688 -32.402344 C 4.929688 -41.703125 7.796875 -49.5 13.523438 -55.792969 C 19.253906 -62.085938 26.441406 -65.230469 35.082031 -65.230469 C 39.777344 -65.230469 44.097656 -64.199219 48.042969 -62.132812 C 51.988281 -60.066406 55.511719 -57.011719 58.609375 -52.972656 C 60.488281 -50.53125 62.179688 -47.761719 63.679688 -44.660156 C 64.339844 -43.066406 64.667969 -41.796875 64.667969 -40.859375 C 64.667969 -40.011719 64.246094 -39.449219 63.398438 -39.167969 Z M 18.175781 -30.714844 L 19.441406 -31.136719 L 50.15625 -40.152344 C 51.285156 -40.621094 51.847656 -41.140625 51.847656 -41.703125 C 51.847656 -42.171875 51.730469 -42.828125 51.496094 -43.675781 C 51.257812 -44.519531 50.859375 -45.695312 50.296875 -47.199219 C 49.074219 -50.296875 47.339844 -52.878906 45.085938 -54.945312 C 41.515625 -58.328125 37.335938 -60.019531 32.546875 -60.019531 C 27.753906 -60.019531 23.902344 -58.046875 20.992188 -54.101562 C 18.082031 -50.15625 16.625 -44.847656 16.625 -38.179688 C 16.625 -36.113281 16.765625 -34.351562 17.046875 -32.898438 C 17.328125 -31.441406 17.703125 -30.714844 18.175781 -30.714844 Z M 18.175781 -30.714844 "/></g></g></g><g fill="#ffffff" fill-opacity="1"><g transform="translate(322.655904, 133.529846)"><g/></g></g><g fill="#ffffff" fill-opacity="1"><g transform="translate(363.511213, 133.529846)"><g><path d="M 90.589844 -21.132812 C 91.25 -22.074219 91.859375 -22.542969 92.421875 -22.542969 C 93.925781 -22.542969 94.675781 -21.835938 94.675781 -20.429688 C 94.675781 -18.925781 93.691406 -16.90625 91.71875 -14.371094 C 87.867188 -9.015625 82.890625 -4.929688 76.785156 -2.113281 C 70.679688 0.703125 63.824219 2.113281 56.214844 2.113281 C 41.5625 2.113281 29.492188 -2.769531 20.007812 -12.539062 C 10.519531 -22.308594 5.777344 -34.660156 5.777344 -49.59375 C 5.777344 -64.246094 10.519531 -76.878906 20.007812 -87.492188 C 29.492188 -98.105469 40.859375 -103.410156 54.101562 -103.410156 C 59.738281 -103.410156 66.171875 -102.097656 73.402344 -99.46875 L 76.644531 -98.761719 C 78.050781 -98.761719 78.992188 -99.609375 79.460938 -101.296875 C 80.023438 -102.800781 80.871094 -103.550781 81.996094 -103.550781 C 82.75 -103.550781 83.359375 -103.316406 83.828125 -102.847656 L 84.53125 -100.875 L 92 -81.292969 L 92.421875 -79.179688 C 92.421875 -77.863281 91.8125 -77.207031 90.589844 -77.207031 C 89.558594 -77.207031 88.5 -78.121094 87.421875 -79.953125 C 86.339844 -81.785156 85.332031 -83.335938 84.390625 -84.601562 C 83.453125 -85.871094 82.371094 -87.117188 81.152344 -88.335938 C 74.671875 -95.003906 66.59375 -98.339844 56.917969 -98.339844 C 46.398438 -98.339844 37.664062 -93.972656 30.714844 -85.238281 C 23.761719 -76.503906 20.289062 -65.464844 20.289062 -52.128906 C 20.289062 -38.226562 24.070312 -26.746094 31.628906 -17.679688 C 39.191406 -8.617188 48.746094 -4.085938 60.300781 -4.085938 C 66.40625 -4.085938 71.921875 -5.355469 76.855469 -7.890625 C 81.785156 -10.425781 85.847656 -14.089844 89.042969 -18.878906 Z M 90.589844 -21.132812 "/></g></g></g><g fill="#ffffff" fill-opacity="1"><g transform="translate(461.141287, 133.529846)"><g><path d="M 22.402344 -100.734375 L 22.402344 -12.117188 C 22.402344 -9.863281 22.636719 -8.171875 23.105469 -7.042969 C 24.042969 -5.449219 25.617188 -4.507812 27.824219 -4.226562 C 30.03125 -3.945312 31.136719 -3.195312 31.136719 -1.972656 C 31.136719 -0.65625 30.054688 0 27.894531 0 L 5.210938 0 C 3.148438 0 2.113281 -0.703125 2.113281 -2.113281 C 2.113281 -3.242188 3.097656 -3.945312 5.070312 -4.226562 C 6.667969 -4.695312 7.773438 -5.117188 8.382812 -5.496094 C 8.992188 -5.871094 9.441406 -6.386719 9.722656 -7.042969 C 10.285156 -7.703125 10.566406 -9.535156 10.566406 -12.539062 L 10.566406 -80.730469 L 10.425781 -84.816406 C 10.144531 -87.257812 8.828125 -88.757812 6.480469 -89.324219 L 5.496094 -89.605469 C 4.273438 -89.792969 3.664062 -90.449219 3.664062 -91.578125 C 3.664062 -92.234375 4.085938 -92.84375 4.929688 -93.410156 L 19.863281 -102.707031 L 20.570312 -102.988281 C 21.601562 -102.988281 22.214844 -102.238281 22.402344 -100.734375 Z M 22.402344 -100.734375 "/></g></g></g><g fill="#ffffff" fill-opacity="1"><g transform="translate(494.389047, 133.529846)"><g><path d="M 4.367188 -31.277344 L 4.226562 -33.109375 C 4.226562 -42.5 7.207031 -50.179688 13.171875 -56.144531 C 19.136719 -62.109375 26.816406 -65.089844 36.207031 -65.089844 C 46.257812 -65.089844 54.851562 -61.566406 61.992188 -54.523438 C 69.128906 -47.480469 72.699219 -38.886719 72.699219 -28.742188 C 72.699219 -19.535156 69.738281 -12.117188 63.824219 -6.480469 C 57.90625 -0.84375 50.015625 1.972656 40.152344 1.972656 C 30.007812 1.972656 21.507812 -1.128906 14.652344 -7.328125 C 7.796875 -13.523438 4.367188 -21.507812 4.367188 -31.277344 Z M 33.109375 -60.300781 C 24.1875 -60.300781 18.691406 -55.792969 16.625 -46.773438 C 16.25 -45.273438 16.0625 -43.535156 16.0625 -41.5625 C 16.0625 -30.574219 18.597656 -21.320312 23.667969 -13.808594 C 28.742188 -6.292969 35.035156 -2.535156 42.546875 -2.535156 C 47.902344 -2.535156 52.175781 -4.367188 55.367188 -8.03125 C 58.5625 -11.695312 60.160156 -16.71875 60.160156 -23.105469 C 60.160156 -33.15625 57.480469 -41.867188 52.128906 -49.242188 C 46.773438 -56.613281 40.433594 -60.300781 33.109375 -60.300781 Z M 33.109375 -60.300781 "/></g></g></g><g fill="#ffffff" fill-opacity="1"><g transform="translate(572.155005, 133.529846)"><g><path d="M 22.964844 -62.835938 L 38.039062 -62.835938 C 38.320312 -62.835938 38.53125 -62.789062 38.671875 -62.695312 C 38.816406 -62.601562 38.933594 -62.507812 39.027344 -62.414062 L 38.746094 -61.566406 L 37.617188 -59.3125 C 37.335938 -58.375 36.679688 -57.90625 35.644531 -57.90625 L 24.375 -58.046875 C 23.527344 -58.046875 23.105469 -57.480469 23.105469 -56.355469 L 23.105469 -10.847656 C 23.105469 -8.21875 23.574219 -6.339844 24.515625 -5.210938 C 25.453125 -4.085938 27.050781 -3.523438 29.304688 -3.523438 C 31.089844 -3.523438 32.640625 -4.039062 33.953125 -5.070312 L 36.914062 -7.328125 L 37.757812 -7.609375 C 38.695312 -7.609375 39.167969 -6.996094 39.167969 -5.777344 C 39.167969 -5.023438 38.792969 -4.273438 38.039062 -3.523438 C 34.847656 0.140625 30.054688 1.972656 23.667969 1.972656 C 19.816406 1.972656 16.601562 1.152344 14.019531 -0.492188 C 11.433594 -2.136719 10.144531 -4.226562 10.144531 -6.761719 L 10.566406 -9.296875 C 10.941406 -12.210938 11.128906 -15.734375 11.128906 -19.863281 L 11.128906 -56.214844 C 11.128906 -57.339844 10.613281 -57.90625 9.582031 -57.90625 L 4.226562 -57.90625 C 2.628906 -57.90625 1.832031 -58.5625 1.832031 -59.878906 C 1.832031 -60.441406 2.042969 -60.980469 2.464844 -61.496094 C 2.886719 -62.015625 3.710938 -62.695312 4.929688 -63.539062 C 7.375 -65.230469 10.027344 -68.167969 12.890625 -72.347656 C 15.757812 -76.527344 17.703125 -80.164062 18.738281 -83.265625 C 19.300781 -85.425781 20.195312 -86.503906 21.414062 -86.503906 C 22.449219 -86.503906 22.964844 -85.753906 22.964844 -84.25 Z M 22.964844 -62.835938 "/></g></g></g><g fill="#ffffff" fill-opacity="1"><g transform="translate(608.924798, 133.529846)"><g><path d="M 22.683594 -100.734375 L 22.683594 -54.945312 L 22.964844 -53.960938 L 23.667969 -54.382812 C 25.734375 -57.292969 28.601562 -59.738281 32.261719 -61.707031 C 35.925781 -63.679688 39.542969 -64.667969 43.113281 -64.667969 C 53.539062 -64.667969 59.546875 -58.984375 61.144531 -47.621094 L 66.359375 -12.398438 C 66.828125 -9.769531 67.34375 -7.984375 67.90625 -7.042969 C 69.128906 -5.449219 70.75 -4.507812 72.769531 -4.226562 C 74.789062 -3.945312 75.796875 -3.195312 75.796875 -1.972656 C 75.796875 -0.65625 74.765625 0 72.699219 0 L 50.296875 0 C 48.230469 0 47.199219 -0.703125 47.199219 -2.113281 C 47.199219 -3.335938 48.183594 -4.039062 50.15625 -4.226562 C 53.160156 -4.789062 54.664062 -6.292969 54.664062 -8.734375 L 54.242188 -12.398438 L 49.59375 -44.800781 C 48.558594 -52.597656 44.753906 -56.496094 38.179688 -56.496094 C 34.046875 -56.496094 30.457031 -55.0625 27.402344 -52.199219 C 24.351562 -49.335938 22.824219 -45.929688 22.824219 -41.984375 L 22.824219 -12.398438 C 22.824219 -9.675781 23.246094 -7.75 24.09375 -6.621094 C 24.9375 -5.496094 26.441406 -4.742188 28.601562 -4.367188 C 30.761719 -3.992188 31.839844 -3.195312 31.839844 -1.972656 C 31.839844 -0.65625 30.761719 0 28.601562 0 L 5.210938 0 C 3.148438 0 2.113281 -0.703125 2.113281 -2.113281 C 2.113281 -3.242188 3.097656 -3.945312 5.070312 -4.226562 C 7.609375 -4.882812 9.203125 -5.824219 9.863281 -7.042969 C 10.425781 -7.796875 10.707031 -9.628906 10.707031 -12.539062 L 10.707031 -84.816406 C 10.425781 -87.257812 9.15625 -88.757812 6.902344 -89.324219 L 5.636719 -89.605469 C 4.507812 -89.792969 3.945312 -90.449219 3.945312 -91.578125 C 3.945312 -92.234375 4.367188 -92.84375 5.210938 -93.410156 L 20.007812 -102.707031 L 20.851562 -102.988281 C 21.882812 -102.988281 22.496094 -102.238281 22.683594 -100.734375 Z M 22.683594 -100.734375 "/></g></g></g><g fill="#ffffff" fill-opacity="1"><g transform="translate(683.873146, 133.529846)"><g><path d="M 23.246094 -62.132812 L 23.246094 -12.398438 C 23.246094 -9.675781 23.714844 -7.726562 24.65625 -6.550781 C 25.59375 -5.378906 27.214844 -4.625 29.515625 -4.296875 C 31.816406 -3.96875 32.96875 -3.195312 32.96875 -1.972656 C 32.96875 -0.65625 31.933594 0 29.867188 0 L 5.636719 0 C 3.476562 0 2.394531 -0.65625 2.394531 -1.972656 C 2.394531 -3.195312 3.523438 -3.945312 5.777344 -4.226562 C 8.03125 -4.507812 9.628906 -5.449219 10.566406 -7.042969 C 11.035156 -7.796875 11.269531 -9.582031 11.269531 -12.398438 L 11.269531 -43.113281 C 11.269531 -45.835938 11.011719 -47.714844 10.496094 -48.746094 C 9.980469 -49.78125 8.96875 -50.4375 7.46875 -50.71875 L 6.199219 -51 C 4.976562 -51.378906 4.367188 -52.035156 4.367188 -52.972656 C 4.367188 -53.726562 4.835938 -54.335938 5.777344 -54.804688 L 20.570312 -64.105469 L 21.414062 -64.386719 C 22.542969 -64.386719 23.152344 -63.632812 23.246094 -62.132812 Z M 6.339844 -78.617188 C 6.152344 -78.898438 6.058594 -79.414062 6.058594 -80.164062 C 6.058594 -82.511719 7.230469 -84.625 9.582031 -86.503906 C 12.867188 -88.851562 16.0625 -90.027344 19.160156 -90.027344 C 22.824219 -90.027344 24.65625 -88.710938 24.65625 -86.082031 C 24.65625 -83.828125 23.433594 -81.714844 20.992188 -79.742188 C 18.175781 -77.394531 14.980469 -76.21875 11.410156 -76.21875 C 8.96875 -76.21875 7.277344 -77.019531 6.339844 -78.617188 Z M 6.339844 -78.617188 "/></g></g></g><g fill="#ffffff" fill-opacity="1"><g transform="translate(718.247959, 133.529846)"><g><path d="M 23.949219 -62.132812 L 23.949219 -54.945312 L 24.09375 -53.960938 L 24.9375 -54.664062 C 30.667969 -61.519531 36.960938 -64.949219 43.816406 -64.949219 C 46.820312 -64.949219 49.757812 -64.292969 52.621094 -62.976562 C 55.488281 -61.660156 57.671875 -59.738281 59.171875 -57.199219 C 60.675781 -54.664062 61.757812 -51 62.414062 -46.210938 L 67.625 -12.117188 C 68 -9.488281 68.636719 -7.609375 69.527344 -6.480469 C 70.421875 -5.355469 71.875 -4.601562 73.894531 -4.226562 C 75.914062 -3.851562 76.925781 -3.097656 76.925781 -1.972656 C 76.925781 -0.65625 75.890625 0 73.824219 0 L 51.988281 0 C 49.828125 0 48.746094 -0.65625 48.746094 -1.972656 C 48.746094 -2.910156 48.957031 -3.476562 49.382812 -3.664062 C 49.804688 -3.851562 50.53125 -4.039062 51.566406 -4.226562 C 54.289062 -4.789062 55.652344 -6.246094 55.652344 -8.59375 L 55.226562 -12.117188 L 51 -43.675781 C 49.875 -52.222656 45.835938 -56.496094 38.886719 -56.496094 C 34.46875 -56.496094 30.855469 -55.039062 28.035156 -52.128906 C 25.21875 -49.21875 23.808594 -45.414062 23.808594 -40.714844 L 23.808594 -12.117188 C 23.808594 -9.582031 24.019531 -7.9375 24.445312 -7.183594 C 24.867188 -6.433594 25.546875 -5.800781 26.488281 -5.285156 C 27.425781 -4.765625 28.671875 -4.390625 30.21875 -4.15625 C 31.769531 -3.921875 32.546875 -3.195312 32.546875 -1.972656 C 32.546875 -0.65625 31.511719 0 29.445312 0 L 6.761719 0 C 4.695312 0 3.664062 -0.65625 3.664062 -1.972656 C 3.664062 -3.097656 4.601562 -3.851562 6.480469 -4.226562 C 8.828125 -4.507812 10.425781 -5.402344 11.269531 -6.902344 C 11.457031 -7.183594 11.625 -7.703125 11.765625 -8.453125 C 11.90625 -9.203125 11.976562 -10.566406 11.976562 -12.539062 L 11.976562 -43.113281 C 11.976562 -45.835938 11.71875 -47.714844 11.199219 -48.746094 C 10.683594 -49.78125 9.628906 -50.4375 8.03125 -50.71875 L 7.042969 -51 C 5.824219 -51.285156 5.210938 -51.941406 5.210938 -52.972656 C 5.210938 -53.726562 5.589844 -54.335938 6.339844 -54.804688 L 21.273438 -64.105469 L 22.121094 -64.386719 C 23.246094 -64.386719 23.855469 -63.632812 23.949219 -62.132812 Z M 23.949219 -62.132812 "/></g></g></g><g fill="#ffffff" fill-opacity="1"><g transform="translate(794.464191, 133.529846)"><g><path d="M 21.414062 -21.132812 C 17 -19.066406 14.792969 -17.046875 14.792969 -15.074219 C 14.792969 -13.761719 15.734375 -12.84375 17.609375 -12.328125 C 19.488281 -11.8125 23.011719 -11.554688 28.175781 -11.554688 L 39.027344 -11.835938 L 50.859375 -12.117188 C 56.683594 -12.117188 61.355469 -10.730469 64.878906 -7.960938 C 68.402344 -5.1875 70.164062 -1.550781 70.164062 2.957031 C 70.164062 9.34375 66.640625 14.511719 59.59375 18.457031 C 52.550781 22.402344 43.207031 24.375 31.558594 24.375 C 22.355469 24.375 14.933594 23.199219 9.296875 20.851562 C 3.664062 18.503906 0.84375 15.402344 0.84375 11.554688 C 0.84375 9.863281 1.503906 8.078125 2.816406 6.199219 C 4.132812 4.320312 5.871094 2.675781 8.03125 1.269531 L 10.144531 -0.28125 C 10.707031 -0.65625 11.082031 -0.984375 11.269531 -1.269531 C 11.457031 -1.550781 11.648438 -1.878906 11.835938 -2.253906 C 11.363281 -2.816406 10.800781 -3.289062 10.144531 -3.664062 C 6.574219 -5.542969 4.789062 -8.078125 4.789062 -11.269531 C 4.789062 -15.496094 8.96875 -19.394531 17.328125 -22.964844 C 17.988281 -23.339844 18.503906 -23.714844 18.878906 -24.09375 C 18.972656 -24.09375 19.066406 -24.140625 19.160156 -24.234375 L 17.046875 -25.5 C 10.472656 -28.507812 7.183594 -33.90625 7.183594 -41.703125 C 7.183594 -48.464844 9.839844 -53.984375 15.144531 -58.257812 C 20.453125 -62.53125 27.285156 -64.667969 35.644531 -64.667969 L 37.195312 -64.667969 C 38.132812 -64.667969 38.648438 -65.042969 38.746094 -65.792969 L 39.167969 -67.90625 C 41.046875 -76.738281 45.367188 -81.152344 52.128906 -81.152344 C 54.757812 -81.152344 56.800781 -80.660156 58.257812 -79.671875 C 59.714844 -78.6875 60.441406 -77.253906 60.441406 -75.375 C 60.441406 -72.746094 58.9375 -71.429688 55.933594 -71.429688 L 52.832031 -71.851562 L 50.578125 -72.699219 L 48.746094 -72.980469 C 47.152344 -72.980469 45.765625 -72.253906 44.589844 -70.796875 C 43.417969 -69.339844 42.828125 -67.671875 42.828125 -65.792969 C 42.828125 -65.042969 43.300781 -64.574219 44.238281 -64.386719 C 50.53125 -63.070312 55.34375 -60.652344 58.679688 -57.128906 C 62.015625 -53.609375 63.679688 -49.21875 63.679688 -43.957031 C 63.679688 -37.382812 60.957031 -31.980469 55.511719 -27.753906 C 50.0625 -23.527344 43.113281 -21.414062 34.660156 -21.414062 L 27.613281 -21.980469 L 25.5 -22.261719 L 24.515625 -22.402344 L 23.386719 -22.121094 Z M 35.363281 -60.722656 C 30.480469 -60.722656 26.605469 -59.101562 23.738281 -55.863281 C 20.875 -52.621094 19.441406 -48.277344 19.441406 -42.828125 C 19.441406 -37.570312 20.851562 -33.390625 23.667969 -30.289062 C 26.488281 -27.191406 30.242188 -25.640625 34.941406 -25.640625 C 39.730469 -25.640625 43.582031 -27.191406 46.492188 -30.289062 C 49.40625 -33.390625 50.859375 -37.570312 50.859375 -42.828125 C 50.859375 -48.277344 49.429688 -52.621094 46.5625 -55.863281 C 43.699219 -59.101562 39.964844 -60.722656 35.363281 -60.722656 Z M 23.105469 -1.832031 L 18.316406 -1.972656 C 14.464844 1.222656 12.539062 4.460938 12.539062 7.75 C 12.539062 11.316406 14.582031 14.230469 18.667969 16.484375 C 22.753906 18.738281 28.082031 19.863281 34.660156 19.863281 C 41.515625 19.863281 47.199219 18.503906 51.707031 15.78125 C 56.214844 13.054688 58.46875 9.675781 58.46875 5.636719 C 58.46875 2.816406 57.554688 0.820312 55.722656 -0.351562 C 53.890625 -1.527344 50.71875 -2.113281 46.210938 -2.113281 L 44.519531 -1.972656 L 33.53125 -1.550781 Z M 23.105469 -1.832031 "/></g></g></g><g fill="#ffffff" fill-opacity="1"><g transform="translate(862.932064, 133.529846)"><g/></g></g><g fill="#ffffff" fill-opacity="1"><g transform="translate(903.787352, 133.529846)"><g><path d="M 10.144531 -18.035156 L 10.144531 -86.082031 C 10.144531 -90.214844 9.699219 -92.984375 8.804688 -94.394531 C 7.914062 -95.804688 6.058594 -96.507812 3.242188 -96.507812 C 1.082031 -96.507812 0 -97.355469 0 -99.042969 C 0 -100.546875 1.175781 -101.296875 3.523438 -101.296875 L 29.023438 -101.296875 C 31.277344 -101.296875 32.402344 -100.546875 32.402344 -99.042969 C 32.402344 -97.355469 31.371094 -96.507812 29.304688 -96.507812 C 26.957031 -96.507812 25.359375 -95.804688 24.515625 -94.394531 C 23.667969 -92.984375 23.246094 -90.214844 23.246094 -86.082031 L 23.246094 -15.355469 C 23.246094 -12.539062 23.339844 -10.613281 23.527344 -9.582031 C 23.714844 -8.546875 24.117188 -7.75 24.726562 -7.183594 C 25.335938 -6.621094 26.300781 -6.199219 27.613281 -5.917969 C 28.929688 -5.636719 30.714844 -5.496094 32.96875 -5.496094 L 42.40625 -5.496094 C 46.820312 -5.496094 50.90625 -5.824219 54.664062 -6.480469 C 58.421875 -7.136719 61.238281 -7.960938 63.117188 -8.945312 C 64.996094 -9.933594 67.859375 -12.117188 71.710938 -15.496094 C 73.121094 -16.71875 74.367188 -18.128906 75.445312 -19.722656 C 76.527344 -21.320312 77.441406 -22.121094 78.191406 -22.121094 C 79.601562 -22.121094 80.304688 -21.414062 80.304688 -20.007812 C 80.304688 -19.253906 79.976562 -18.503906 79.320312 -17.75 L 68.332031 0.140625 C 67.390625 1.832031 66.359375 2.675781 65.230469 2.675781 C 64.949219 2.675781 64.644531 2.605469 64.316406 2.464844 C 63.988281 2.324219 63.773438 2.207031 63.679688 2.113281 L 62.132812 1.128906 C 61.378906 0.375 59.691406 0 57.058594 0 L 3.523438 0 C 1.175781 0 0 -0.75 0 -2.253906 C 0 -3.664062 1.128906 -4.507812 3.382812 -4.789062 C 6.011719 -4.789062 7.796875 -5.449219 8.734375 -6.761719 C 9.675781 -8.078125 10.144531 -10.472656 10.144531 -13.949219 Z M 10.144531 -18.035156 "/></g></g></g><g fill="#ffffff" fill-opacity="1"><g transform="translate(979.721832, 133.529846)"><g><path d="M 10.144531 -18.035156 L 10.144531 -86.082031 C 10.144531 -90.214844 9.699219 -92.984375 8.804688 -94.394531 C 7.914062 -95.804688 6.058594 -96.507812 3.242188 -96.507812 C 1.082031 -96.507812 0 -97.355469 0 -99.042969 C 0 -100.546875 1.175781 -101.296875 3.523438 -101.296875 L 29.023438 -101.296875 C 31.277344 -101.296875 32.402344 -100.546875 32.402344 -99.042969 C 32.402344 -97.355469 31.371094 -96.507812 29.304688 -96.507812 C 26.957031 -96.507812 25.359375 -95.804688 24.515625 -94.394531 C 23.667969 -92.984375 23.246094 -90.214844 23.246094 -86.082031 L 23.246094 -15.355469 C 23.246094 -12.539062 23.339844 -10.613281 23.527344 -9.582031 C 23.714844 -8.546875 24.117188 -7.75 24.726562 -7.183594 C 25.335938 -6.621094 26.300781 -6.199219 27.613281 -5.917969 C 28.929688 -5.636719 30.714844 -5.496094 32.96875 -5.496094 L 42.40625 -5.496094 C 46.820312 -5.496094 50.90625 -5.824219 54.664062 -6.480469 C 58.421875 -7.136719 61.238281 -7.960938 63.117188 -8.945312 C 64.996094 -9.933594 67.859375 -12.117188 71.710938 -15.496094 C 73.121094 -16.71875 74.367188 -18.128906 75.445312 -19.722656 C 76.527344 -21.320312 77.441406 -22.121094 78.191406 -22.121094 C 79.601562 -22.121094 80.304688 -21.414062 80.304688 -20.007812 C 80.304688 -19.253906 79.976562 -18.503906 79.320312 -17.75 L 68.332031 0.140625 C 67.390625 1.832031 66.359375 2.675781 65.230469 2.675781 C 64.949219 2.675781 64.644531 2.605469 64.316406 2.464844 C 63.988281 2.324219 63.773438 2.207031 63.679688 2.113281 L 62.132812 1.128906 C 61.378906 0.375 59.691406 0 57.058594 0 L 3.523438 0 C 1.175781 0 0 -0.75 0 -2.253906 C 0 -3.664062 1.128906 -4.507812 3.382812 -4.789062 C 6.011719 -4.789062 7.796875 -5.449219 8.734375 -6.761719 C 9.675781 -8.078125 10.144531 -10.472656 10.144531 -13.949219 Z M 10.144531 -18.035156 "/></g></g></g><g fill="#ffffff" fill-opacity="1"><g transform="translate(1046.639536, 133.529846)"><g><path d="M 90.589844 -21.132812 C 91.25 -22.074219 91.859375 -22.542969 92.421875 -22.542969 C 93.925781 -22.542969 94.675781 -21.835938 94.675781 -20.429688 C 94.675781 -18.925781 93.691406 -16.90625 91.71875 -14.371094 C 87.867188 -9.015625 82.890625 -4.929688 76.785156 -2.113281 C 70.679688 0.703125 63.824219 2.113281 56.214844 2.113281 C 41.5625 2.113281 29.492188 -2.769531 20.007812 -12.539062 C 10.519531 -22.308594 5.777344 -34.660156 5.777344 -49.59375 C 5.777344 -64.246094 10.519531 -76.878906 20.007812 -87.492188 C 29.492188 -98.105469 40.859375 -103.410156 54.101562 -103.410156 C 59.738281 -103.410156 66.171875 -102.097656 73.402344 -99.46875 L 76.644531 -98.761719 C 78.050781 -98.761719 78.992188 -99.609375 79.460938 -101.296875 C 80.023438 -102.800781 80.871094 -103.550781 81.996094 -103.550781 C 82.75 -103.550781 83.359375 -103.316406 83.828125 -102.847656 L 84.53125 -100.875 L 92 -81.292969 L 92.421875 -79.179688 C 92.421875 -77.863281 91.8125 -77.207031 90.589844 -77.207031 C 89.558594 -77.207031 88.5 -78.121094 87.421875 -79.953125 C 86.339844 -81.785156 85.332031 -83.335938 84.390625 -84.601562 C 83.453125 -85.871094 82.371094 -87.117188 81.152344 -88.335938 C 74.671875 -95.003906 66.59375 -98.339844 56.917969 -98.339844 C 46.398438 -98.339844 37.664062 -93.972656 30.714844 -85.238281 C 23.761719 -76.503906 20.289062 -65.464844 20.289062 -52.128906 C 20.289062 -38.226562 24.070312 -26.746094 31.628906 -17.679688 C 39.191406 -8.617188 48.746094 -4.085938 60.300781 -4.085938 C 66.40625 -4.085938 71.921875 -5.355469 76.855469 -7.890625 C 81.785156 -10.425781 85.847656 -14.089844 89.042969 -18.878906 Z M 90.589844 -21.132812 "/></g></g></g></g></g><path fill="#ffffff" d="M 1208.714844 47.289062 C 1210.90625 47.289062 1212.339844 46.097656 1212.339844 43.910156 C 1212.339844 41.71875 1210.90625 40.664062 1208.664062 40.664062 L 1205.175781 40.664062 L 1205.175781 47.289062 Z M 1202.066406 37.824219 L 1208.851562 37.824219 C 1212.90625 37.824219 1215.503906 39.988281 1215.503906 43.855469 C 1215.503906 46.777344 1213.882812 48.613281 1211.582031 49.425781 L 1216.015625 56.753906 L 1212.394531 56.753906 L 1208.390625 50.074219 C 1208.363281 50.046875 1207.390625 50.074219 1207.363281 50.074219 L 1205.175781 50.074219 L 1205.175781 56.753906 L 1202.066406 56.753906 L 1202.066406 37.824219 " fill-opacity="1" fill-rule="nonzero"/><g clip-path="url(#045c8f8277)"><path fill="#ffffff" d="M 1208.433594 31.457031 C 1206.296875 31.457031 1204.222656 31.875 1202.273438 32.699219 C 1200.390625 33.496094 1198.699219 34.636719 1197.242188 36.089844 C 1195.789062 37.542969 1194.648438 39.234375 1193.851562 41.121094 C 1193.027344 43.070312 1192.609375 45.140625 1192.609375 47.277344 C 1192.609375 49.414062 1193.027344 51.488281 1193.851562 53.4375 C 1194.648438 55.320312 1195.789062 57.011719 1197.242188 58.46875 C 1198.699219 59.921875 1200.390625 61.0625 1202.273438 61.859375 C 1204.222656 62.683594 1206.296875 63.101562 1208.433594 63.101562 C 1210.570312 63.101562 1212.640625 62.683594 1214.589844 61.859375 C 1216.476562 61.0625 1218.167969 59.921875 1219.621094 58.46875 C 1221.074219 57.011719 1222.214844 55.320312 1223.011719 53.4375 C 1223.835938 51.488281 1224.253906 49.414062 1224.253906 47.277344 C 1224.253906 45.140625 1223.835938 43.070312 1223.011719 41.121094 C 1222.214844 39.234375 1221.074219 37.542969 1219.621094 36.089844 C 1218.167969 34.636719 1216.476562 33.496094 1214.589844 32.699219 C 1212.640625 31.875 1210.570312 31.457031 1208.433594 31.457031 Z M 1208.433594 66.382812 C 1205.855469 66.382812 1203.351562 65.875 1200.996094 64.878906 C 1198.722656 63.917969 1196.679688 62.539062 1194.925781 60.785156 C 1193.171875 59.03125 1191.792969 56.988281 1190.832031 54.714844 C 1189.835938 52.359375 1189.328125 49.855469 1189.328125 47.277344 C 1189.328125 44.699219 1189.835938 42.199219 1190.832031 39.84375 C 1191.792969 37.566406 1193.171875 35.523438 1194.925781 33.769531 C 1196.679688 32.015625 1198.722656 30.640625 1200.996094 29.679688 C 1203.351562 28.679688 1205.855469 28.175781 1208.433594 28.175781 C 1211.011719 28.175781 1213.511719 28.679688 1215.867188 29.679688 C 1218.144531 30.640625 1220.1875 32.015625 1221.941406 33.769531 C 1223.695312 35.523438 1225.070312 37.566406 1226.035156 39.84375 C 1227.03125 42.199219 1227.535156 44.699219 1227.535156 47.277344 C 1227.535156 49.855469 1227.03125 52.359375 1226.035156 54.714844 C 1225.070312 56.988281 1223.695312 59.03125 1221.941406 60.785156 C 1220.1875 62.539062 1218.144531 63.917969 1215.867188 64.878906 C 1213.511719 65.875 1211.011719 66.382812 1208.433594 66.382812 " fill-opacity="1" fill-rule="nonzero"/></g></svg>